<svg width="137" height="42" viewBox="0 0 137 42" fill="none" xmlns="http://www.w3.org/2000/svg">
<path d="M26.7541 34.4769C29.6663 34.4769 32.5784 34.4736 35.4939 34.4803C35.6948 34.4803 35.9827 34.3698 36.073 34.6175C36.1433 34.8151 35.8923 34.9423 35.7617 35.0829C32.8998 38.1061 29.4253 40.078 25.3783 41.002C22.9817 41.5511 20.5549 41.6515 18.0946 41.3368C14.0309 40.8179 10.4861 39.1975 7.34969 36.6029C7.01161 36.325 6.94131 36.1141 7.18567 35.7123C8.85263 32.9402 10.4895 30.1514 12.143 27.3727C14.2117 23.9009 16.2937 20.4358 18.3657 16.964C20.2536 13.8002 22.1314 10.6297 24.0193 7.46597C24.2336 7.10774 24.1365 6.97718 23.7482 6.97718C23.4068 6.97718 23.0653 6.97383 22.7239 6.97383C17.2209 6.97383 11.7179 6.97383 6.21829 6.97383C6.12791 6.97383 6.03754 6.98052 5.94716 6.97383C5.79318 6.96044 5.59234 7.01735 5.51201 6.83991C5.42832 6.65912 5.60238 6.54529 5.71285 6.43481C7.90534 4.2051 10.4393 2.47758 13.3749 1.34933C16.9598 -0.0266596 20.6553 -0.311232 24.4076 0.318176C27.1424 0.77684 29.6997 1.77787 32.0261 3.3246C32.7759 3.82344 33.4989 4.34906 34.1918 4.9249C34.5935 5.2597 34.5902 5.55431 34.3291 5.98619C32.3742 9.21358 30.4361 12.4544 28.498 15.6918C25.4587 20.7639 22.4227 25.836 19.38 30.9047C18.7875 31.8923 18.1783 32.8666 17.5858 33.8509C17.4921 34.0082 17.2644 34.1622 17.405 34.3698C17.5289 34.5539 17.7699 34.4736 17.9607 34.4736C20.8896 34.4769 23.8218 34.4769 26.7541 34.4769Z" fill="white"/>
<path d="M10.8093 10.0903C13.1457 10.0903 15.4822 10.0869 17.822 10.0936C18.0797 10.0936 18.4379 9.95638 18.5751 10.2108C18.7224 10.482 18.4278 10.7364 18.2872 10.9741C16.6571 13.7228 15.0169 16.4681 13.3767 19.2134C11.2579 22.7622 9.13901 26.3076 7.0235 29.8564C6.38082 30.9378 5.75487 32.0292 5.10884 33.1072C4.65695 33.8605 4.64021 33.8538 4.12138 33.1608C2.5247 31.0181 1.37323 28.6612 0.697069 26.0699C-0.380768 21.9352 -0.20336 17.8508 1.19247 13.8165C1.58076 12.6916 2.10294 11.6303 2.66194 10.5824C2.85609 10.2209 3.11383 10.0836 3.52555 10.0836C5.95571 10.1003 8.38251 10.0936 10.8093 10.0903Z" fill="white"/>
<path d="M30.7685 31.3604C28.3785 31.3604 25.9851 31.3637 23.5952 31.357C23.3876 31.357 23.1198 31.4407 22.996 31.2264C22.8654 31.0055 23.0897 30.8314 23.1968 30.6539C25.2755 27.1654 27.3542 23.6735 29.4396 20.1917C31.2404 17.1886 33.0547 14.1922 34.8622 11.1892C35.4447 10.2183 36.0137 9.24068 36.5895 8.26644C36.8673 7.79438 36.9744 7.78434 37.3058 8.22291C39.1066 10.6301 40.392 13.285 41.018 16.2278C42.0523 21.0923 41.4732 25.7593 39.2506 30.2254C38.8489 31.0356 38.387 31.4273 37.4062 31.3871C35.1936 31.2967 32.981 31.357 30.7685 31.3604Z" fill="white"/>
<path d="M52.9939 31.3687H71.7776V25.8098H60.9288L71.4189 13.7954V8.95382H53.1284V14.5127H63.4841L52.9939 26.5719V31.3687Z" fill="white"/>
<path d="M86.5809 31.8618C91.288 31.8618 94.8744 29.8893 96.9814 26.8409L92.4088 23.4338C91.3777 25.0029 89.45 26.2581 86.6257 26.2581C83.6669 26.2581 81.022 24.5994 80.6633 21.5958H97.4297C97.5642 20.6544 97.5194 20.0268 97.5194 19.4888C97.5194 12.1816 92.3639 8.46069 86.4912 8.46069C79.6771 8.46069 74.701 13.5265 74.701 20.1613C74.701 27.2444 79.9012 31.8618 86.5809 31.8618ZM80.8875 17.4267C81.4703 14.692 84.0256 13.5265 86.3119 13.5265C88.5982 13.5265 90.8397 14.7369 91.3777 17.4267H80.8875Z" fill="white"/>
<path d="M109.584 31.8618C114.426 31.8618 118.102 28.8583 118.102 24.5546C118.102 20.6544 115.591 18.6819 111.602 17.606L109.495 16.9784C107.567 16.4852 107.298 15.7231 107.298 15.0507C107.298 14.0196 108.463 13.5265 109.539 13.5265C111.019 13.5265 112.319 14.1989 113.35 15.499L117.385 12.2264C115.636 9.71593 113.081 8.46069 109.629 8.46069C104.832 8.46069 101.335 11.1056 101.201 15.23C101.067 18.6819 103.263 21.3268 107.388 22.4028L109.046 22.8062C111.512 23.4787 112.05 24.0166 112.05 24.9581C112.05 26.0788 110.839 26.5719 109.584 26.5719C107.432 26.5719 105.594 25.6305 104.563 23.9718L100.349 27.5582C102.277 30.4721 105.639 31.8618 109.584 31.8618Z" fill="white"/>
<path d="M133.04 31.6377C134.788 31.6377 135.909 31.4584 136.94 31.1446V25.7202C136.223 25.9891 135.371 26.1236 134.43 26.1236C131.74 26.1236 130.619 25.0477 130.619 22.3131V14.3334H136.94V8.95382H130.619V2.72247H124.477V8.95382H119.95V14.3334H124.477V23.5235C124.477 29.0376 128.288 31.6377 133.04 31.6377Z" fill="white"/>
</svg>
